<?xml version="1.0" encoding="UTF-8" standalone="no"?>
<!-- Created with Inkscape (http://www.inkscape.org/) -->

<svg
   width="6.2998834cm"
   height="4.476788cm"
   viewBox="0 0 62.998835 44.76788"
   version="1.1"
   id="svg1"
   xml:space="preserve"
   xmlns="http://www.w3.org/2000/svg"
   xmlns:svg="http://www.w3.org/2000/svg"><defs
     id="defs1" /><g
     id="layer1"
     transform="translate(-105.86803,-75.194866)"><g
       id="g2"><g
         id="g6"
         style="fill:#ffffff"
         transform="translate(256.24387,16.69743)"><circle
           style="fill:#e50083;fill-opacity:1;stroke-width:0.373999"
           id="path1"
           cx="-104.52655"
           cy="64.697014"
           r="6.1995783" /><ellipse
           style="fill:#e50083;fill-opacity:1;stroke-width:0.239981"
           id="circle2"
           cx="-127.54342"
           cy="69.16404"
           rx="3.8433974"
           ry="4.1173825" /><circle
           style="fill:#e50083;fill-opacity:1;stroke-width:0.315562"
           id="circle3"
           cx="-116.565"
           cy="79.496674"
           r="5.2308941" /><circle
           style="fill:#e50083;fill-opacity:1;stroke-width:0.186999"
           id="circle4"
           cx="-136.32616"
           cy="77.365555"
           r="3.0997891" /><path
           style="fill:#e50083;fill-opacity:1;stroke-width:0.373999"
           d="m -133.27213,77.546329 c 0,0 0.0367,-1.2446 1.05143,-2.49721 1.20486,-1.48734 2.49001,-1.69169 4.56642,-1.71241 l -3.69882,-3.73875 c 0,0 0.26956,2.11984 -1.25576,3.44194 -1.87477,1.62499 -3.43332,1.29245 -3.43332,1.29245 z"
           id="path4" /><path
           style="fill:#e50083;fill-opacity:1;stroke-width:0.410919"
           d="m -127.66151,73.338029 c 0,0 2.07944,-0.17823 3.4866,1.04723 1.73575,1.51162 2.30256,2.31126 2.38372,4.92571 l 5.16176,-5.04127 c 0,0 -4.12744,-0.12406 -5.41219,-1.29421 -1.73497,-1.58021 -1.67533,-3.64138 -1.67533,-3.64138 z"
           id="path5" /><path
           style="fill:#e50083;fill-opacity:1;stroke-width:0.48921"
           d="m -111.35434,79.104819 c 0,0 -0.33071,-2.55146 1.21296,-5.12364 1.67979,-2.79899 3.21374,-2.82419 6.15073,-3.12113 l -6.69802,-5.29613 c 0,0 0.74446,2.89229 -1.25423,6.20614 -1.578,2.61636 -4.19507,2.49374 -4.19507,2.49374 z"
           id="path6" /></g><path
         style="font-weight:600;font-size:8.77197px;line-height:1;font-family:Gabarito;-inkscape-font-specification:'Gabarito Semi-Bold';text-align:center;letter-spacing:0.734738px;text-anchor:middle;fill:#e50083;stroke-width:0.105014"
         d="m 109.00835,107.4797 -0.0175,0.42105 h -3.05265 v -1.09649 h 4.22809 v 0.87719 l -3.12282,4.43862 -0.15789,-0.4386 h 3.3158 v 1.0965 h -4.33335 V 111.892 Z m 2.34877,2.3158 q 0,-0.67544 0.22808,-1.23685 0.22807,-0.57018 0.64035,-0.98246 0.41228,-0.41228 0.97369,-0.64035 0.57018,-0.22807 1.24562,-0.22807 0.66667,0 1.22807,0.22807 0.56141,0.22807 0.97369,0.64035 0.41228,0.41228 0.64036,0.98246 0.22807,0.56141 0.22807,1.23685 0,0.66667 -0.22807,1.23685 -0.22808,0.5614 -0.64036,0.98246 -0.41228,0.41228 -0.97369,0.64035 -0.5614,0.22807 -1.22807,0.22807 -0.67544,0 -1.24562,-0.22807 -0.56141,-0.22807 -0.97369,-0.64035 -0.41228,-0.42106 -0.64035,-0.98246 -0.22808,-0.57018 -0.22808,-1.23685 z m 1.17545,0 q 0,0.57895 0.24561,1.02632 0.24562,0.4386 0.67544,0.68421 0.4386,0.24562 0.99124,0.24562 0.55263,0 0.97369,-0.24562 0.42982,-0.24561 0.67544,-0.68421 0.24561,-0.44737 0.24561,-1.02632 0,-0.58772 -0.24561,-1.02632 -0.24562,-0.44737 -0.67544,-0.69299 -0.42106,-0.24561 -0.97369,-0.24561 -0.55264,0 -0.99124,0.25439 -0.42982,0.24561 -0.67544,0.68421 -0.24561,0.4386 -0.24561,1.02632 z m 6.19091,0 q 0,-0.67544 0.22807,-1.23685 0.22807,-0.57018 0.64035,-0.98246 0.41228,-0.41228 0.97369,-0.64035 0.57018,-0.22807 1.24562,-0.22807 0.66667,0 1.22807,0.22807 0.56141,0.22807 0.97369,0.64035 0.41229,0.41228 0.64036,0.98246 0.22807,0.56141 0.22807,1.23685 0,0.66667 -0.22807,1.23685 -0.22807,0.5614 -0.64036,0.98246 -0.41228,0.41228 -0.97369,0.64035 -0.5614,0.22807 -1.22807,0.22807 -0.67544,0 -1.24562,-0.22807 -0.56141,-0.22807 -0.97369,-0.64035 -0.41228,-0.42106 -0.64035,-0.98246 -0.22807,-0.57018 -0.22807,-1.23685 z m 1.17544,0 q 0,0.57895 0.24561,1.02632 0.24562,0.4386 0.67545,0.68421 0.4386,0.24562 0.99123,0.24562 0.55263,0 0.97369,-0.24562 0.42982,-0.24561 0.67544,-0.68421 0.24561,-0.44737 0.24561,-1.02632 0,-0.58772 -0.24561,-1.02632 -0.24562,-0.44737 -0.67544,-0.69299 -0.42106,-0.24561 -0.97369,-0.24561 -0.55263,0 -0.99123,0.25439 -0.42983,0.24561 -0.67545,0.68421 -0.24561,0.4386 -0.24561,1.02632 z m 6.10318,2.98247 1.07018,-5.97371 h 1.02632 l 1.50001,4.17546 h -0.0351 l 1.50001,-4.17546 h 1.02632 l 1.07018,5.97371 h -1.16668 l -0.42982,-2.72808 q -0.0965,-0.55264 -0.16667,-1.10527 -0.0614,-0.56141 -0.0965,-1.11404 h 0.31579 q -0.14912,0.62281 -0.29825,1.14913 -0.14035,0.51754 -0.33333,1.0614 l -0.95615,2.65791 h -0.89474 l -0.95614,-2.65791 q -0.19299,-0.54386 -0.34211,-1.0614 -0.14912,-0.52632 -0.28947,-1.14913 h 0.30701 q -0.0263,0.55263 -0.0965,1.11404 -0.0614,0.55263 -0.15789,1.10527 l -0.42983,2.72808 z m 9.62951,-2.84212 h 1.12282 q 0.50877,0 0.80702,-0.26316 0.29824,-0.26316 0.29824,-0.74562 0,-0.50877 -0.29824,-0.76316 -0.28948,-0.26316 -0.79825,-0.26316 h -1.14036 l 0.24562,-0.25438 v 5.1316 h -1.14913 v -5.97371 h 2.14913 q 0.6579,0 1.14036,0.27193 0.48246,0.26316 0.75439,0.73684 0.27193,0.47369 0.27193,1.11404 0,0.63159 -0.27193,1.11404 -0.27193,0.47369 -0.76316,0.73685 -0.48246,0.26316 -1.13159,0.26316 h -1.23685 z m 8.50671,2.84212 h -3.57896 v -5.97371 h 1.14913 v 5.23686 l -0.25439,-0.35965 h 2.68422 z m 2.29615,-2.27194 h 2.94738 v 1.07018 h -2.94738 z m -1.24562,2.27194 2.12281,-5.97371 h 1.34211 l 2.05265,5.97371 h -1.1579 l -1.72808,-5.18423 h 0.33333 l -1.80702,5.18423 z m 10.94531,0 -3.45616,-4.61406 0.52632,-0.14912 v 4.76318 h -1.14913 v -5.97371 h 1.02633 l 3.3772,4.50879 -0.44737,0.0614 v -4.57019 h 1.14913 v 5.97371 z m 3.76107,-2.44738 v -1.0965 h 2.43861 v 1.0965 z m -0.0263,-2.43861 0.36842,-0.4386 v 4.6316 l -0.41228,-0.40351 h 3.00878 v 1.0965 h -3.74563 v -5.97371 h 3.74563 v 1.08772 z m 5.98915,4.88599 v -5.3509 h 1.1579 v 5.3509 z m -1.79826,-4.87722 v -1.09649 h 4.80704 v 1.09649 z"
         id="text1"
         aria-label="ZOOMPLANET" /><path
         style="font-size:4.3903px;line-height:1;font-family:Gabarito;-inkscape-font-specification:Gabarito;text-align:center;letter-spacing:0.367731px;text-anchor:middle;fill:#e50083;stroke-width:0.0525587"
         d="m 118.64024,119.17245 q -0.28976,0 -0.50489,-0.14049 -0.21512,-0.14049 -0.33805,-0.39074 -0.11854,-0.25463 -0.11854,-0.5883 0,-0.33366 0.11854,-0.58391 0.12293,-0.25024 0.33805,-0.38634 0.21513,-0.14049 0.50489,-0.14049 0.29854,0 0.51805,0.14049 0.22391,0.1361 0.34684,0.38634 0.12293,0.25025 0.12293,0.58391 0,0.33367 -0.12293,0.5883 -0.12293,0.25025 -0.34684,0.39074 -0.21951,0.14049 -0.51805,0.14049 z m -1.08441,-0.0439 v -2.9898 h 0.43903 v 1.33904 h -0.0439 v 1.22051 h 0.0439 l -0.10536,0.43025 z m 1.01855,-0.33367 q 0.2722,0 0.43903,-0.20195 0.16684,-0.20634 0.16684,-0.54001 0,-0.32927 -0.16684,-0.53122 -0.16683,-0.20196 -0.43903,-0.20196 -0.2678,0 -0.43464,0.20196 -0.16683,0.20195 -0.16683,0.53561 0,0.33367 0.16683,0.53562 0.16684,0.20195 0.43464,0.20195 z m 2.48386,0.37757 q -0.24147,0 -0.38196,-0.0746 -0.14049,-0.079 -0.20634,-0.20635 -0.0659,-0.13171 -0.0878,-0.29415 -0.0176,-0.16244 -0.0176,-0.33366 v -1.27758 h 0.43903 v 1.36977 q 0,0.2283 0.10098,0.30733 0.10536,0.079 0.24585,0.079 0.14488,0 0.28537,-0.0571 0.14488,-0.0571 0.25903,-0.15366 0.11854,-0.10098 0.17561,-0.21513 v 0.24586 h -0.0702 v -1.57612 h 0.43903 v 2.14247 h -0.33366 l -0.0922,-0.37757 0.10976,-0.0132 q -0.11415,0.1361 -0.25464,0.23708 -0.14049,0.0966 -0.29415,0.14927 -0.15366,0.0483 -0.3161,0.0483 z m 2.55849,-0.0439 h -0.43903 v -2.14247 h 0.43903 z m -0.50488,-2.80101 q 0,-0.12732 0.0746,-0.20635 0.079,-0.0834 0.21074,-0.0834 0.12731,0 0.20634,0.0834 0.079,0.079 0.079,0.20635 0,0.12292 -0.079,0.20634 -0.079,0.079 -0.20634,0.079 -0.13171,0 -0.21074,-0.079 -0.0746,-0.0834 -0.0746,-0.20634 z m 1.83409,2.82296 q -0.11415,0 -0.20195,-0.0527 -0.0878,-0.0571 -0.14049,-0.16245 -0.0483,-0.10536 -0.0483,-0.25902 v -2.5376 h 0.43025 v 2.38394 q 0,0.1361 0.0659,0.18439 0.0702,0.0483 0.15805,0.0483 v 0.35123 q -0.0571,0.022 -0.12293,0.0307 -0.0659,0.0132 -0.14049,0.0132 z m 1.91751,0.022 q -0.29415,0 -0.51806,-0.14049 -0.22391,-0.14049 -0.34683,-0.39074 -0.12293,-0.25463 -0.12293,-0.5883 0,-0.33366 0.12293,-0.58391 0.12292,-0.25024 0.34683,-0.38634 0.22391,-0.14049 0.51806,-0.14049 0.28975,0 0.50488,0.14049 0.21512,0.1361 0.33366,0.38634 0.12293,0.25025 0.12293,0.58391 0,0.33367 -0.12293,0.5883 -0.11854,0.25025 -0.33366,0.39074 -0.21513,0.14049 -0.50488,0.14049 z m 0.0658,-0.37757 q 0.2722,0 0.43464,-0.20195 0.16683,-0.20195 0.16683,-0.53562 0,-0.33366 -0.16683,-0.53561 -0.16244,-0.20196 -0.43464,-0.20196 -0.2722,0 -0.43903,0.20196 -0.16683,0.20195 -0.16683,0.53122 0,0.33367 0.16683,0.54001 0.16683,0.20195 0.43903,0.20195 z m 0.68489,0.33367 -0.10537,-0.43025 h 0.0439 v -1.22051 h -0.0439 v -1.33904 h 0.43903 v 2.9898 z m 3.40476,-0.2722 -0.84733,-1.87027 h 0.46098 l 0.75074,1.65514 z m -0.56196,1.10635 1.35221,-2.97662 h 0.46099 l -1.35222,2.97662 z m 3.29167,-0.79025 q -0.32488,0 -0.57513,-0.1361 -0.24585,-0.14049 -0.38195,-0.39074 -0.1361,-0.25024 -0.1361,-0.58391 0,-0.33805 0.1361,-0.5883 0.1361,-0.25024 0.38195,-0.39073 0.25025,-0.14049 0.57513,-0.14049 0.32927,0 0.57513,0.14049 0.24586,0.14049 0.38196,0.39073 0.14049,0.25025 0.14049,0.5883 0,0.33367 -0.14049,0.58391 -0.1361,0.25025 -0.38196,0.39074 -0.24586,0.1361 -0.57513,0.1361 z m 0,-0.42147 q 0.29415,0 0.46976,-0.18878 0.18001,-0.19317 0.18001,-0.5005 0,-0.31171 -0.18001,-0.50488 -0.17561,-0.19317 -0.46976,-0.19317 -0.28976,0 -0.46976,0.19317 -0.17561,0.18878 -0.17561,0.50049 0,0.31172 0.17561,0.50489 0.18,0.18878 0.46976,0.18878 z m 2.53215,0.42147 q -0.24147,0 -0.38195,-0.0746 -0.14049,-0.079 -0.20635,-0.20635 -0.0659,-0.13171 -0.0878,-0.29415 -0.0176,-0.16244 -0.0176,-0.33366 v -1.27758 h 0.43903 v 1.36977 q 0,0.2283 0.10098,0.30733 0.10537,0.079 0.24586,0.079 0.14488,0 0.28537,-0.0571 0.14488,-0.0571 0.25902,-0.15366 0.11854,-0.10098 0.17562,-0.21513 v 0.24586 h -0.0702 v -1.57612 h 0.43903 v 2.14247 h -0.33366 l -0.0922,-0.37757 0.10976,-0.0132 q -0.11415,0.1361 -0.25464,0.23708 -0.14049,0.0966 -0.29415,0.14927 -0.15366,0.0483 -0.3161,0.0483 z m 2.44435,-2.18637 0.10536,0.57952 v 1.56295 h -0.43903 v -2.14247 z m 0.0395,0.75952 -0.10537,-0.0483 v -0.32049 l 0.0395,-0.0483 q 0.0439,-0.079 0.1361,-0.16683 0.0966,-0.0922 0.22391,-0.15366 0.12732,-0.0659 0.25903,-0.0659 0.0659,0 0.12293,0.009 0.0615,0.009 0.0922,0.0307 v 0.39513 h -0.1361 q -0.29854,0 -0.43464,0.0922 -0.1361,0.0878 -0.19756,0.27659 z m 3.87452,1.42685 q -0.29415,0 -0.51805,-0.14049 -0.22391,-0.14049 -0.34684,-0.39074 -0.12292,-0.25463 -0.12292,-0.5883 0,-0.33366 0.12292,-0.58391 0.12293,-0.25024 0.34684,-0.38634 0.2239,-0.14049 0.51805,-0.14049 0.28976,0 0.50489,0.14049 0.21512,0.1361 0.33366,0.38634 0.12293,0.25025 0.12293,0.58391 0,0.33367 -0.12293,0.5883 -0.11854,0.25025 -0.33366,0.39074 -0.21513,0.14049 -0.50489,0.14049 z m 0.0659,-0.37757 q 0.2722,0 0.43464,-0.20195 0.16683,-0.20195 0.16683,-0.53562 0,-0.33366 -0.16683,-0.53561 -0.16244,-0.20196 -0.43464,-0.20196 -0.2722,0 -0.43903,0.20196 -0.16683,0.20195 -0.16683,0.53122 0,0.33367 0.16683,0.54001 0.16683,0.20195 0.43903,0.20195 z m 0.68488,0.33367 -0.10536,-0.43025 h 0.0439 v -1.22051 h -0.0439 v -1.33904 h 0.43903 v 2.9898 z m 1.59702,-2.14247 0.10537,0.57952 v 1.56295 h -0.43903 v -2.14247 z m 0.0395,0.75952 -0.10537,-0.0483 v -0.32049 l 0.0395,-0.0483 q 0.0439,-0.079 0.1361,-0.16683 0.0966,-0.0922 0.2239,-0.15366 0.12732,-0.0659 0.25903,-0.0659 0.0658,0 0.12293,0.009 0.0615,0.009 0.0922,0.0307 v 0.39513 h -0.1361 q -0.29854,0 -0.43464,0.0922 -0.1361,0.0878 -0.19756,0.27659 z m 2.27312,1.42685 q -0.31171,0 -0.54879,-0.1361 -0.23707,-0.14049 -0.36878,-0.39074 -0.13171,-0.25024 -0.13171,-0.58391 0,-0.33805 0.13171,-0.5883 0.13171,-0.25024 0.36878,-0.39073 0.23708,-0.14049 0.54879,-0.14049 0.3161,0 0.55318,0.14049 0.23707,0.14049 0.36878,0.39073 0.13171,0.25025 0.13171,0.5883 0,0.0307 -0.004,0.0659 0,0.0307 -0.004,0.0571 h -1.67709 v -0.37756 h 1.36099 l -0.12293,0.25463 q 0,-0.33366 -0.14927,-0.54878 -0.14927,-0.21513 -0.45659,-0.21513 -0.2722,0 -0.43464,0.17561 -0.16244,0.17123 -0.16244,0.45221 v 0.22829 q 0,0.29415 0.15805,0.46976 0.15805,0.17122 0.43903,0.17122 0.25903,0 0.39952,-0.10975 0.14049,-0.10976 0.24585,-0.2722 l 0.32928,0.20634 q -0.14927,0.27659 -0.38635,0.41708 -0.23269,0.1361 -0.5883,0.1361 z m 2.50141,0.0176 q -0.25024,0 -0.43025,-0.0878 -0.18,-0.0878 -0.27658,-0.25025 -0.0922,-0.16683 -0.0922,-0.39513 0,-0.21073 0.0966,-0.37317 0.0966,-0.16684 0.27658,-0.26342 0.18001,-0.0966 0.42586,-0.0966 0.30732,0 0.49172,0.14049 0.18878,0.1361 0.26342,0.37757 h -0.24586 V 117.693 q 0,-0.1361 -0.0922,-0.25025 -0.0922,-0.11415 -0.32488,-0.11415 -0.12293,0 -0.2722,0.0307 -0.14488,0.0263 -0.30293,0.0966 l -0.13171,-0.33805 q 0.18,-0.0878 0.37318,-0.13171 0.19317,-0.0439 0.37756,-0.0439 0.27659,0 0.45659,0.10098 0.18001,0.10097 0.26781,0.27219 0.0878,0.16684 0.0878,0.37757 v 1.43563 h -0.3161 l -0.10976,-0.39074 0.23269,-0.0658 q -0.079,0.25902 -0.28098,0.39073 -0.20196,0.12732 -0.47416,0.12732 z m 0.079,-0.39073 q 0.19317,0 0.31171,-0.0878 0.11854,-0.0922 0.11854,-0.25464 0,-0.16683 -0.11854,-0.25464 -0.11854,-0.0878 -0.31171,-0.0878 -0.19317,0 -0.31171,0.0878 -0.11854,0.0878 -0.11854,0.25464 0,0.16244 0.11854,0.25464 0.11854,0.0878 0.31171,0.0878 z m 1.78141,0.32927 v -2.14247 h 0.33366 l 0.0922,0.37757 -0.10976,0.0132 q 0.11854,-0.14049 0.25025,-0.23708 0.13171,-0.0966 0.28098,-0.14488 0.14927,-0.0527 0.31171,-0.0527 0.22829,0 0.36,0.079 0.13171,0.0746 0.19318,0.20635 0.0615,0.12732 0.079,0.28976 0.0176,0.16244 0.0176,0.33366 v 1.27758 h -0.43903 v -1.36978 q 0,-0.22829 -0.10536,-0.30732 -0.10098,-0.079 -0.24147,-0.079 -0.20195,0 -0.38635,0.12732 -0.18439,0.12292 -0.26781,0.29854 v -0.24586 h 0.0702 v 1.57612 z m 2.73955,0 v -1.36978 q 0,-0.22829 -0.10537,-0.30732 -0.10098,-0.079 -0.24147,-0.079 -0.20195,0 -0.38634,0.12732 -0.1844,0.12292 -0.26781,0.29854 l -0.0527,-0.42147 q 0.11854,-0.14049 0.25025,-0.23708 0.13171,-0.0966 0.28098,-0.14488 0.14927,-0.0527 0.31171,-0.0527 0.2283,0 0.36001,0.079 0.13171,0.0746 0.19317,0.20635 0.0615,0.12732 0.079,0.28976 0.0176,0.16244 0.0176,0.33366 v 1.27758 z m 2.01409,0.0439 q -0.2239,0 -0.44342,-0.10537 -0.21512,-0.10536 -0.35561,-0.36 l 0.33366,-0.21952 q 0.12293,0.16244 0.23269,0.23708 0.10975,0.0702 0.28537,0.0702 0.14049,0 0.21512,-0.0702 0.079,-0.0746 0.079,-0.18 0,-0.0703 -0.0395,-0.12293 -0.0351,-0.0527 -0.12732,-0.0966 -0.0922,-0.0483 -0.26341,-0.0922 -0.3161,-0.0834 -0.48733,-0.21952 -0.17122,-0.1361 -0.17122,-0.43025 0,-0.17561 0.0878,-0.32049 0.0878,-0.14488 0.25464,-0.23269 0.16683,-0.0878 0.39512,-0.0878 0.2722,0 0.46537,0.11415 0.19318,0.10975 0.30293,0.26341 l -0.33805,0.25025 q -0.0615,-0.079 -0.18,-0.15366 -0.11854,-0.079 -0.29854,-0.079 -0.10976,0 -0.20195,0.0615 -0.0922,0.0615 -0.0922,0.17122 0,0.10976 0.0834,0.18 0.0878,0.0659 0.31611,0.11854 0.38634,0.0922 0.54878,0.24147 0.16244,0.14488 0.16244,0.38634 0,0.21074 -0.10975,0.3644 -0.10537,0.14927 -0.28098,0.23269 -0.17122,0.079 -0.37318,0.079 z"
         id="text2"
         aria-label="build your dreams" /></g></g></svg>
